<?xml version="1.0" encoding="utf-8"?>
<!-- Generator: Adobe Illustrator 15.1.0, SVG Export Plug-In . SVG Version: 6.00 Build 0)  -->
<!DOCTYPE svg PUBLIC "-//W3C//DTD SVG 1.0//EN" "http://www.w3.org/TR/2001/REC-SVG-20010904/DTD/svg10.dtd">
<svg version="1.0" id="Capa_1" xmlns="http://www.w3.org/2000/svg" xmlns:xlink="http://www.w3.org/1999/xlink" x="0px" y="0px"
	 width="210.843px" height="290.698px" viewBox="0 0 210.843 290.698" enable-background="new 0 0 210.843 290.698"
	 xml:space="preserve">
<g>
	<g>
		<g>
			<g>
				<linearGradient id="SVGID_1_" gradientUnits="userSpaceOnUse" x1="2.5762" y1="163.063" x2="208.2676" y2="163.063">
					<stop  offset="0" style="stop-color:#FFE259"/>
					<stop  offset="1" style="stop-color:#FFA751"/>
				</linearGradient>
				<path fill="url(#SVGID_1_)" d="M145.552,288.122c-3.342,0-6.631-0.21-9.125-0.393c-11.882-0.867-23.895-3.711-35.704-8.451
					c-7.665-3.075-15.824-6.924-24.942-11.767c-29.135-15.479-50.029-39.073-63.878-72.128c-5.497-13.122-9.327-39.759-9.327-55.457
					c0-56.2,46.394-101.922,103.42-101.922c13.29,0,28.896,3.162,41.747,8.458c10.107,4.167,20.275,10.814,29.408,19.224
					c15.018,13.826,25.094,32.027,29.141,52.636c3.911,19.919,1.99,40.7-5.551,60.096c-0.605,1.549-1.263,3.162-1.957,4.798
					c-1.319,3.111-2.738,6.249-4.109,9.283c-4.555,10.079-9.264,20.501-10.977,31.381c-0.879,5.595-0.449,10.772,0.006,16.254
					c0.268,3.228,0.545,6.564,0.551,10.069c0.026,13.286-5.725,24.972-15.777,32.06C162.812,286.26,155.526,288.122,145.552,288.122
					z"/>
				<path fill="#25305E" d="M105.996,40.58c13.299,0,28.503,3.21,40.766,8.264c10.499,4.329,20.313,11.065,28.645,18.737
					c30.333,27.925,37.644,72.073,22.934,109.903c-0.616,1.579-1.261,3.154-1.927,4.725c-5.723,13.495-12.97,26.722-15.26,41.271
					c-1.463,9.321,0.509,17.459,0.526,26.729c0.023,11.802-4.92,23.063-14.687,29.95c-6.109,4.309-13.873,5.388-21.441,5.388
					c-3.051,0-6.071-0.175-8.937-0.385c-12.042-0.88-23.739-3.78-34.933-8.273c-8.402-3.37-16.702-7.406-24.693-11.65
					c-29.807-15.838-49.739-39.889-62.71-70.849c-5.333-12.733-9.127-39.249-9.127-54.462C5.152,85.058,50.302,40.58,105.996,40.58
					 M105.996,35.428C47.55,35.428,0,82.306,0,139.926c0,15.943,3.913,43.048,9.527,56.452
					c14.088,33.625,35.364,57.637,65.044,73.408c9.201,4.887,17.441,8.772,25.193,11.882c12.055,4.839,24.328,7.743,36.475,8.631
					c2.537,0.186,5.888,0.398,9.313,0.398c10.531,0,18.288-2.012,24.411-6.331c10.747-7.577,16.896-20.032,16.868-34.169
					c-0.007-3.61-0.288-6.999-0.561-10.278c-0.441-5.322-0.858-10.35-0.027-15.642c1.658-10.535,6.088-20.338,10.779-30.718
					c1.377-3.049,2.802-6.2,4.133-9.34c0.703-1.657,1.371-3.293,1.984-4.863c7.721-19.858,9.685-41.133,5.68-61.532
					c-4.152-21.15-14.5-39.835-29.924-54.035c-9.354-8.612-19.785-15.428-30.17-19.71C135.579,38.663,119.606,35.428,105.996,35.428
					L105.996,35.428z"/>
			</g>
			<g>
				<g>
					<linearGradient id="SVGID_2_" gradientUnits="userSpaceOnUse" x1="94.9502" y1="189.936" x2="115.4097" y2="169.4765">
						<stop  offset="0" style="stop-color:#FF0000"/>
						<stop  offset="1" style="stop-color:#FF00BF"/>
					</linearGradient>
					
						<path fill="url(#SVGID_2_)" stroke="#25305E" stroke-width="5.1517" stroke-linecap="round" stroke-linejoin="round" stroke-miterlimit="10" d="
						M87.348,177.454c0,0,22.186,3.309,36.132,0.093c0,0-4.319,16.407-20.926,14.88C97.655,191.974,89.631,188.24,87.348,177.454z"
						/>
					<g>
						<path fill="#25305E" d="M39.892,157.34c0,0-5.322-3.077-5-8.021c0,0,3.532,3.604,5.187,2.277"/>
						<path fill="#25305E" d="M41.266,152.245c0,0-3.929-1.519-4.489-5.711c0,0,2.469,2.813,5.05,1.436"/>
						<path fill="#25305E" d="M43.731,149.238c0,0-3.929-1.521-4.49-5.711c0,0,2.47,2.813,5.049,1.438"/>
					</g>
					<path fill="#25305E" d="M38.629,160.155c0.412,10.99,8.654,19.666,18.409,19.379c9.753-0.285,17.324-9.43,16.909-20.42
						c-0.413-10.991-8.653-19.666-18.408-19.379C45.787,140.023,38.215,149.164,38.629,160.155z"/>
					<g>
						<path fill="#25305E" d="M170.934,160.372c0,0,5.32-3.077,4.999-8.02c0,0-3.533,3.607-5.187,2.278"/>
						<path fill="#25305E" d="M169.558,155.278c0,0,3.932-1.52,4.488-5.711c0,0-2.468,2.812-5.047,1.435"/>
						<path fill="#25305E" d="M167.094,152.271c0,0,3.929-1.521,4.489-5.711c0,0-2.471,2.812-5.049,1.437"/>
					</g>
					<g>
						<path fill="#25305E" d="M172.196,162.838c-0.412,10.99-8.656,19.666-18.41,19.38c-9.75-0.288-17.322-9.43-16.911-20.421
							c0.415-10.99,8.657-19.665,18.41-19.379C165.038,142.706,172.611,151.847,172.196,162.838z"/>
						<path fill="#1E264D" d="M165.244,164.343c-0.251,6.703-5.28,11.994-11.229,11.82c-5.949-0.177-10.567-5.752-10.314-12.455
							c0.253-6.705,5.281-11.995,11.229-11.822C160.88,152.063,165.497,157.639,165.244,164.343z"/>
						<path fill="#1E264D" d="M67.062,164.343c-0.251,6.703-5.281,11.994-11.23,11.82c-5.948-0.177-10.565-5.752-10.314-12.455
							c0.252-6.705,5.28-11.995,11.229-11.822C62.696,152.063,67.314,157.639,67.062,164.343z"/>
						<path fill="#FFFFFF" d="M151.255,155.275c-0.264,3.856,2.644,7.149,6.485,7.355c3.843,0.206,7.169-2.76,7.434-6.613
							c0.261-3.859-2.644-7.149-6.487-7.355C154.843,148.458,151.516,151.417,151.255,155.275z"/>
						<path fill="#FFFFFF" d="M141.968,164.755c-0.176,2.568,1.756,4.759,4.315,4.893c2.56,0.139,4.771-1.832,4.944-4.398
							c0.176-2.567-1.756-4.761-4.312-4.896C144.355,160.219,142.142,162.192,141.968,164.755z"/>
					</g>
					<path fill="#FFFFFF" d="M54.933,152.594c-0.261,3.855,2.646,7.146,6.483,7.352c3.845,0.206,7.171-2.76,7.435-6.613
						c0.262-3.859-2.645-7.148-6.488-7.354C58.522,145.775,55.194,148.735,54.933,152.594z"/>
					<path fill="#FFFFFF" d="M45.647,162.072c-0.177,2.567,1.756,4.759,4.314,4.893c2.56,0.138,4.772-1.831,4.946-4.397
						c0.176-2.568-1.758-4.762-4.313-4.895C48.035,157.536,45.821,159.508,45.647,162.072z"/>
				</g>
			</g>
			<linearGradient id="SVGID_3_" gradientUnits="userSpaceOnUse" x1="92.8828" y1="44.522" x2="135.8442" y2="1.5605">
				<stop  offset="0" style="stop-color:#44FFCD"/>
				<stop  offset="1" style="stop-color:#00D6A3"/>
			</linearGradient>
			
				<path fill="url(#SVGID_3_)" stroke="#25305E" stroke-width="5.1517" stroke-linecap="round" stroke-linejoin="round" stroke-miterlimit="10" d="
				M98.319,49.958c0,0-4.902-26.555,11.574-43.168l26.966-4.215c0,0-29.728,22.574-28.691,47.383"/>
		</g>
		
			<path fill="none" stroke="#FFFFFF" stroke-width="5.1517" stroke-linecap="round" stroke-linejoin="round" stroke-miterlimit="10" d="
			M141.958,60.978c0,0,43.773,13.572,49.114,67.401"/>
	</g>
</g>
<radialGradient id="SVGID_4_" cx="31.3887" cy="181.5337" r="16.3955" gradientTransform="matrix(0.8645 0 0 0.6483 23.1422 74.8389)" gradientUnits="userSpaceOnUse">
	<stop  offset="0" style="stop-color:#FF0000;stop-opacity:0.75"/>
	<stop  offset="1" style="stop-color:#FF00BF;stop-opacity:0"/>
</radialGradient>
<ellipse display="none" fill="url(#SVGID_4_)" cx="50.277" cy="192.528" rx="14.173" ry="10.629"/>
<radialGradient id="SVGID_5_" cx="156.2432" cy="181.5337" r="16.396" gradientTransform="matrix(0.8645 0 0 0.6483 23.1422 74.8389)" gradientUnits="userSpaceOnUse">
	<stop  offset="0" style="stop-color:#FF0000;stop-opacity:0.75"/>
	<stop  offset="1" style="stop-color:#FF00BF;stop-opacity:0"/>
</radialGradient>
<ellipse display="none" fill="url(#SVGID_5_)" cx="158.214" cy="192.528" rx="14.174" ry="10.629"/>
</svg>
