<?xml version="1.0" standalone="no"?>
<!DOCTYPE svg PUBLIC "-//W3C//DTD SVG 20010904//EN"
 "http://www.w3.org/TR/2001/REC-SVG-20010904/DTD/svg10.dtd">
<svg version="1.0" xmlns="http://www.w3.org/2000/svg"
 width="1164.000000pt" height="1164.000000pt" viewBox="0 0 1164.000000 1164.000000"
 preserveAspectRatio="xMidYMid meet">
<metadata>
Created by potrace 1.14, written by Peter Selinger 2001-2017
</metadata>
<g transform="translate(0.000000,1164.000000) scale(0.100000,-0.100000)"
fill="#000000" stroke="none">
<path d="M6965 11624 c-44 -7 -96 -16 -115 -18 -19 -3 -46 -7 -60 -10 -14 -2
-43 -7 -65 -10 -22 -3 -49 -7 -60 -10 -11 -2 -40 -7 -65 -10 -25 -3 -54 -8
-65 -10 -11 -2 -42 -7 -70 -11 -27 -4 -59 -9 -70 -11 -11 -2 -38 -6 -60 -9
-22 -3 -94 -14 -160 -25 -66 -11 -136 -22 -155 -24 -19 -3 -35 -5 -35 -6 0 -1
-9 -3 -20 -5 -21 -4 -97 -81 -163 -166 -23 -30 -45 -58 -50 -64 -46 -59 -192
-334 -192 -361 0 -6 -9 -32 -21 -58 -11 -26 -22 -55 -24 -64 -3 -9 -14 -51
-25 -92 -19 -66 -29 -113 -45 -200 -3 -14 -7 -36 -10 -49 -2 -13 -7 -49 -10
-80 -4 -31 -8 -71 -10 -90 -5 -42 -6 -43 -57 -47 -24 -2 -56 -6 -73 -9 -16 -2
-50 -7 -75 -10 -25 -3 -56 -8 -70 -11 -14 -3 -38 -8 -55 -10 -34 -4 -49 -8
-120 -24 -27 -6 -59 -13 -70 -14 -11 -2 -30 -6 -42 -10 -12 -4 -30 -9 -40 -11
-65 -13 -226 -59 -240 -68 -7 -5 -17 -5 -23 -2 -5 3 -10 2 -10 -2 0 -5 -12
-10 -27 -11 -15 -1 -30 -8 -35 -15 -4 -6 -8 -9 -8 -5 0 19 -351 -126 -555
-229 -243 -123 -619 -363 -716 -458 -9 -8 -19 -15 -22 -15 -3 0 -20 -12 -36
-27 -16 -16 -51 -46 -77 -68 -133 -110 -353 -331 -482 -483 -39 -46 -51 -61
-101 -127 -30 -39 -56 -72 -60 -75 -3 -3 -10 -12 -16 -21 -5 -9 -35 -52 -65
-95 -82 -118 -180 -276 -180 -291 0 -7 -4 -13 -9 -13 -5 0 -17 -18 -27 -40
-10 -22 -21 -40 -26 -40 -4 0 -8 -8 -8 -18 0 -10 -7 -28 -16 -40 -27 -39 -106
-203 -154 -322 -12 -30 -28 -67 -36 -82 -8 -14 -14 -35 -14 -45 0 -10 -4 -23
-8 -28 -9 -10 -59 -151 -80 -225 -35 -118 -51 -178 -56 -200 -4 -14 -14 -56
-23 -95 -9 -38 -17 -80 -17 -92 -1 -13 -3 -23 -6 -23 -3 0 -6 -8 -7 -17 -1
-10 -7 -47 -13 -83 -6 -36 -13 -76 -15 -90 -2 -14 -6 -45 -10 -70 -6 -46 -10
-85 -22 -225 -10 -105 -9 -542 0 -670 4 -55 9 -127 12 -160 3 -52 6 -86 20
-205 6 -56 16 -137 22 -175 3 -22 7 -51 8 -65 2 -14 4 -25 5 -25 0 0 3 -20 5
-45 2 -25 7 -56 10 -70 5 -28 12 -66 20 -120 2 -19 7 -46 10 -60 5 -24 8 -38
22 -120 6 -37 10 -55 18 -93 3 -12 8 -35 10 -52 8 -42 59 -257 89 -370 35
-135 125 -381 171 -468 8 -16 15 -33 15 -38 0 -9 217 -450 243 -494 7 -11 32
-56 57 -100 24 -44 70 -122 102 -173 32 -51 58 -97 58 -102 0 -4 3 -10 8 -12
11 -5 52 -66 52 -78 0 -5 5 -10 10 -10 6 0 10 -7 10 -15 0 -8 3 -15 8 -15 4 0
12 -8 17 -19 15 -29 115 -171 133 -190 10 -9 33 -39 52 -67 19 -27 39 -54 45
-60 5 -6 21 -26 35 -44 34 -45 81 -100 107 -128 13 -12 23 -25 23 -27 0 -2 10
-15 23 -28 12 -13 69 -75 127 -137 58 -62 122 -130 144 -149 21 -20 71 -67
112 -106 41 -38 92 -86 115 -105 23 -19 47 -40 53 -45 9 -9 67 -55 129 -105
11 -8 24 -20 31 -25 6 -6 31 -26 56 -45 25 -19 47 -38 48 -42 2 -5 8 -8 12 -8
5 0 38 -21 73 -48 36 -26 75 -54 87 -62 12 -8 40 -27 61 -42 21 -16 42 -28 45
-28 4 0 23 -12 43 -28 20 -15 45 -32 56 -38 11 -6 31 -18 45 -25 14 -8 39 -24
57 -36 17 -13 33 -23 36 -23 3 0 38 -19 79 -43 40 -23 87 -49 103 -57 17 -8
32 -17 35 -20 3 -3 55 -30 115 -60 61 -30 124 -64 140 -75 17 -11 32 -19 35
-18 3 0 69 -30 147 -68 78 -38 147 -69 152 -69 6 0 11 -4 11 -10 0 -5 5 -10
11 -10 10 0 66 -23 196 -82 26 -12 50 -22 53 -23 5 -2 30 -12 108 -45 101 -42
242 -94 342 -126 58 -19 112 -37 120 -41 8 -3 22 -7 30 -9 8 -1 49 -12 90 -24
41 -12 82 -23 90 -25 8 -1 33 -8 55 -13 22 -6 51 -13 65 -16 14 -2 32 -7 40
-10 8 -3 29 -7 45 -10 17 -3 41 -7 55 -11 81 -18 296 -52 325 -50 14 0 25 -2
25 -5 0 -3 17 -7 38 -9 20 -1 60 -4 87 -7 215 -20 604 -25 740 -11 39 4 84 9
100 11 17 2 46 7 65 12 19 4 38 7 42 6 4 -1 25 5 47 13 23 8 41 12 41 10 0 -4
95 27 130 42 8 3 20 7 26 8 41 9 258 132 300 170 7 5 31 26 55 45 58 46 154
143 204 205 22 28 42 52 45 55 14 13 101 150 120 190 13 25 26 47 29 50 10 7
86 204 107 275 19 65 19 66 28 110 3 17 8 41 11 55 13 62 17 88 21 130 5 43
15 244 14 265 -7 164 -14 266 -26 395 -3 30 -7 88 -9 128 -3 40 -7 77 -10 82
-4 6 -1 10 5 10 6 0 8 5 3 13 -10 17 -10 177 1 177 5 0 3 6 -3 13 -6 8 -8 16
-5 19 3 3 7 35 10 69 2 35 6 75 9 89 3 14 8 42 11 63 7 48 12 71 14 75 3 2 3
2 15 57 4 22 10 45 11 50 2 6 5 17 7 25 2 8 6 24 9 35 4 11 21 66 38 123 17
56 38 115 46 130 7 15 14 32 14 38 0 15 88 236 110 276 6 10 10 25 10 33 0 8
5 15 10 15 6 0 9 3 9 8 -1 4 4 23 12 42 7 19 12 38 11 42 -1 5 2 8 6 8 5 0 18
26 31 58 12 31 27 64 32 72 5 8 12 22 15 30 9 23 20 47 60 135 20 44 61 139
91 210 31 72 58 135 62 140 3 6 6 12 7 15 6 33 18 60 27 60 6 0 8 3 5 6 -3 3
5 33 19 67 13 34 38 103 54 152 17 50 33 97 36 105 7 17 6 12 23 70 16 54 21
70 24 90 2 8 10 40 19 70 9 30 18 67 21 83 3 15 8 37 11 48 4 12 9 31 11 42 2
12 10 54 18 92 14 67 22 116 31 180 3 17 7 41 10 55 5 24 8 51 20 153 20 175
27 664 12 817 -4 36 -9 94 -12 130 -3 36 -8 76 -11 90 -2 14 -7 43 -10 65 -3
22 -9 63 -14 90 -5 28 -12 64 -15 80 -11 66 -16 92 -25 124 -5 19 -7 38 -4 43
3 4 1 8 -3 8 -5 0 -9 8 -10 18 0 9 -4 27 -7 40 -3 12 -8 30 -10 40 -2 9 -9 29
-14 43 -6 15 -8 29 -6 32 3 3 1 13 -4 24 -10 18 -45 129 -48 148 0 6 -3 17 -7
25 -3 8 -17 49 -32 90 -29 81 -34 95 -59 152 -9 20 -16 38 -16 41 0 3 -18 44
-40 91 -21 48 -39 87 -38 89 0 1 -21 43 -47 92 -26 50 -57 108 -69 130 -11 22
-23 42 -26 45 -3 3 -11 16 -18 30 -13 28 -15 31 -93 150 -91 139 -228 324
-294 397 -5 6 -30 35 -55 64 -123 142 -338 346 -534 502 -153 123 -450 327
-475 327 -6 0 -11 4 -11 9 0 5 -8 11 -17 15 -10 3 -43 19 -73 36 -68 39 -232
122 -282 144 -21 9 -53 22 -71 30 -43 19 -90 39 -99 41 -5 2 -11 4 -15 5 -5 1
-11 2 -15 1 -5 0 -8 4 -8 10 0 5 -4 8 -8 5 -5 -3 -22 2 -38 10 -16 9 -30 15
-32 14 -2 -1 -15 2 -30 8 -32 12 -65 23 -72 24 -3 0 -30 9 -60 20 -30 11 -62
21 -70 23 -8 2 -64 17 -125 33 -60 17 -128 34 -150 37 -22 4 -44 10 -50 13 -5
4 -19 7 -30 7 -11 1 -27 4 -35 8 -8 3 -34 8 -58 11 -23 3 -51 10 -61 15 -10 6
-20 8 -23 6 -2 -3 -33 0 -69 6 -156 25 -207 32 -249 35 -19 1 -35 3 -35 4 0 1
-18 3 -40 4 -22 1 -45 5 -52 9 -13 8 64 172 136 290 22 37 41 72 41 77 0 6 5
10 10 10 6 0 14 8 17 18 7 17 57 91 100 147 13 17 27 35 31 40 18 25 88 111
102 125 8 9 43 48 76 86 123 138 332 337 437 417 83 63 100 141 42 191 -31 27
-72 29 -180 10z"/>
</g>
</svg>
