<?xml version="1.0" standalone="no"?>
<!DOCTYPE svg PUBLIC "-//W3C//DTD SVG 20010904//EN"
 "http://www.w3.org/TR/2001/REC-SVG-20010904/DTD/svg10.dtd">
<svg version="1.0" xmlns="http://www.w3.org/2000/svg"
 width="1220.000000pt" height="1220.000000pt" viewBox="0 0 1220.000000 1220.000000"
 preserveAspectRatio="xMidYMid meet">
<metadata>
Created by potrace 1.14, written by Peter Selinger 2001-2017
</metadata>
<g transform="translate(0.000000,1220.000000) scale(0.100000,-0.100000)"
fill="#000000" stroke="none">
<path d="M6657 12194 c-1 -1 -33 -5 -72 -9 -38 -3 -88 -9 -110 -11 -22 -3 -65
-7 -95 -9 -30 -2 -55 -5 -55 -5 0 -1 -18 -4 -40 -5 -22 -2 -69 -6 -105 -10
-36 -4 -81 -9 -100 -11 -19 -2 -62 -6 -95 -9 -33 -2 -87 -8 -120 -11 -33 -4
-75 -7 -92 -8 -18 0 -33 -3 -33 -6 0 -3 -12 -5 -27 -5 -30 -1 -176 -14 -208
-19 -11 -2 -24 -4 -28 -5 -5 0 -5 -7 0 -13 4 -7 9 -17 10 -23 1 -5 14 -44 29
-85 14 -41 28 -82 30 -90 2 -8 14 -49 28 -90 13 -41 23 -77 21 -79 -2 -1 -21
6 -42 17 -35 19 -71 33 -83 33 -3 1 -9 4 -15 9 -9 6 -74 31 -97 36 -5 1 -11 3
-15 4 -5 1 -12 3 -18 5 -5 1 -12 3 -15 4 -3 2 -12 4 -20 6 -58 13 -79 17 -105
21 -16 2 -41 7 -53 10 -109 24 -523 23 -850 -1 -31 -2 -110 -6 -174 -7 l-118
-3 0 -26 c0 -14 3 -29 8 -33 4 -4 7 -11 8 -14 0 -4 3 -14 6 -22 3 -8 16 -44
28 -80 12 -36 33 -89 46 -118 13 -29 24 -57 24 -62 0 -6 5 -10 12 -10 6 0 9
-3 5 -6 -3 -3 5 -24 19 -45 13 -21 24 -41 24 -45 0 -3 14 -26 30 -51 17 -24
30 -48 30 -54 0 -5 3 -9 8 -9 4 0 18 -18 32 -40 13 -22 28 -40 32 -40 4 0 8
-5 8 -11 0 -6 6 -16 13 -23 6 -7 37 -41 67 -76 46 -54 85 -92 191 -192 11 -10
23 -18 29 -18 6 0 10 -4 10 -8 0 -5 21 -24 48 -42 26 -19 49 -38 50 -42 2 -4
10 -8 18 -8 8 0 14 -4 14 -10 0 -5 6 -10 14 -10 8 0 16 -4 18 -8 10 -26 386
-220 458 -237 8 -2 52 -17 98 -34 45 -16 82 -28 82 -25 0 3 9 0 19 -6 11 -5
31 -11 45 -12 15 -1 26 -5 26 -8 0 -3 10 -7 23 -7 12 -1 50 -8 84 -16 34 -8
65 -13 68 -11 3 2 2 0 -2 -5 -5 -5 -29 -12 -55 -15 -27 -3 -69 -9 -95 -12 -37
-5 -279 -52 -403 -79 -8 -2 -27 -8 -41 -13 -15 -6 -29 -9 -31 -6 -3 2 -20 -2
-39 -10 -19 -8 -47 -16 -64 -19 -27 -5 -72 -18 -115 -34 -8 -3 -21 -8 -27 -10
-7 -1 -19 -5 -25 -6 -7 -2 -20 -6 -28 -10 -82 -30 -198 -69 -207 -70 -7 0 -13
-4 -13 -9 0 -5 -4 -7 -9 -3 -5 3 -12 1 -16 -5 -3 -5 -12 -10 -19 -10 -8 0 -35
-10 -62 -22 -27 -12 -51 -22 -54 -23 -25 -2 -476 -220 -485 -235 -3 -5 -15
-10 -25 -10 -10 0 -20 -4 -22 -8 -1 -5 -30 -23 -63 -41 -94 -51 -149 -84 -162
-97 -6 -6 -25 -17 -42 -24 -17 -7 -31 -16 -31 -21 0 -5 -5 -9 -11 -9 -9 0 -97
-56 -109 -69 -3 -4 -38 -29 -79 -56 -101 -69 -114 -78 -127 -90 -6 -5 -23 -19
-38 -30 -36 -26 -130 -98 -136 -105 -3 -3 -27 -23 -55 -45 -27 -22 -55 -44
-61 -50 -6 -5 -42 -37 -80 -70 -106 -92 -484 -475 -484 -490 0 -2 -10 -15 -22
-28 -13 -13 -32 -34 -43 -48 -11 -13 -38 -47 -60 -74 -22 -27 -68 -88 -103
-135 -34 -47 -68 -92 -75 -100 -6 -8 -18 -28 -26 -43 -8 -15 -18 -27 -23 -27
-4 0 -8 -4 -8 -8 0 -5 -25 -46 -56 -93 -30 -46 -62 -99 -71 -116 -8 -18 -20
-33 -25 -33 -5 0 -6 -4 -3 -10 3 -5 1 -10 -5 -10 -6 0 -9 -4 -5 -9 3 -5 -1
-16 -9 -23 -11 -12 -162 -293 -156 -293 1 0 -13 -31 -30 -70 -18 -38 -42 -97
-55 -130 -13 -33 -29 -73 -36 -90 -7 -16 -13 -32 -14 -35 -1 -3 -4 -12 -8 -20
-5 -14 -29 -88 -32 -100 -1 -3 -4 -12 -8 -20 -3 -8 -11 -33 -17 -55 -6 -22
-14 -47 -17 -55 -3 -8 -7 -19 -9 -25 -1 -5 -12 -45 -24 -87 -11 -43 -23 -85
-24 -95 -2 -10 -9 -38 -16 -63 -14 -50 -18 -72 -26 -115 -3 -16 -7 -39 -10
-50 -9 -44 -34 -193 -40 -235 -3 -25 -7 -58 -10 -75 -2 -16 -7 -55 -10 -85 -4
-30 -10 -60 -15 -65 -4 -6 -4 -17 1 -25 5 -8 7 -17 4 -22 -24 -39 -24 -726 0
-953 2 -22 7 -69 10 -105 4 -36 8 -76 11 -90 2 -14 6 -45 9 -70 3 -25 8 -56
11 -70 3 -14 7 -43 9 -65 3 -22 10 -65 16 -95 6 -30 13 -66 16 -80 2 -14 9
-49 15 -77 6 -29 11 -56 11 -60 3 -16 87 -340 103 -393 9 -30 18 -62 20 -70 2
-8 4 -15 5 -15 2 0 7 -22 13 -50 2 -8 6 -18 10 -21 4 -4 7 -16 7 -26 0 -10 5
-18 11 -18 5 0 8 -4 5 -9 -3 -5 6 -40 20 -77 14 -38 26 -73 28 -79 1 -5 8 -21
16 -35 7 -14 13 -27 13 -30 -1 -11 47 -137 79 -210 11 -25 26 -58 33 -75 8
-16 32 -70 55 -120 23 -49 41 -92 40 -94 -1 -2 2 -7 7 -10 5 -3 28 -44 51 -91
65 -129 110 -209 191 -338 28 -45 51 -86 51 -91 0 -5 7 -11 15 -15 8 -3 15
-12 15 -21 0 -8 5 -15 11 -15 5 0 8 -4 5 -9 -4 -5 -3 -11 2 -13 4 -1 28 -32
52 -68 25 -36 50 -71 57 -77 6 -7 21 -28 33 -48 12 -19 26 -35 31 -35 5 0 9
-5 9 -10 0 -9 88 -122 145 -187 5 -6 28 -33 50 -58 22 -26 71 -79 108 -118 37
-40 88 -93 112 -120 25 -26 45 -46 45 -44 0 2 36 -31 80 -74 44 -42 80 -75 80
-73 0 3 11 -5 23 -18 40 -39 82 -74 179 -150 51 -40 102 -81 112 -90 11 -10
23 -18 26 -18 4 0 18 -9 31 -21 42 -37 329 -223 459 -298 126 -72 521 -271
540 -271 5 0 29 -10 52 -22 24 -12 51 -24 62 -25 11 -2 24 -7 30 -12 12 -9
166 -71 188 -75 7 -2 24 -8 38 -13 50 -21 195 -67 203 -65 4 1 7 -2 7 -6 0 -5
6 -9 13 -9 6 0 41 -9 77 -20 53 -17 96 -30 160 -48 3 -1 25 -7 50 -14 25 -7
52 -14 61 -16 8 -2 39 -10 67 -19 29 -8 52 -13 52 -11 0 2 15 -2 33 -9 17 -7
38 -11 45 -9 7 3 18 0 25 -5 7 -5 30 -12 52 -15 22 -3 47 -8 55 -11 8 -3 26
-8 40 -10 14 -3 36 -7 50 -10 103 -23 380 -72 455 -82 17 -2 46 -7 65 -10 19
-4 51 -8 70 -10 19 -1 35 -3 35 -4 0 -1 18 -4 40 -5 22 -2 51 -6 65 -9 14 -2
52 -7 85 -10 33 -4 78 -9 100 -12 22 -2 59 -6 83 -7 23 -1 42 -4 42 -7 0 -3
28 -6 63 -6 34 -1 98 -4 142 -8 352 -28 1034 -29 1317 -1 271 26 272 26 428
51 30 5 43 7 140 24 41 8 78 13 83 12 4 -1 7 3 7 10 0 6 3 9 6 6 3 -3 31 0 62
8 31 8 64 16 73 18 91 23 311 104 320 118 3 5 8 9 10 7 6 -3 90 41 139 74 58
39 181 163 200 202 8 17 18 32 21 35 10 9 39 73 39 87 0 7 5 13 12 13 6 0 9 3
6 6 -4 3 -2 20 3 37 30 101 32 338 4 477 -4 24 -8 40 -21 100 -3 14 -7 43 -10
65 -3 21 -8 44 -12 50 -4 5 -7 15 -8 20 -1 6 -5 26 -9 45 -3 19 -13 64 -21 99
-57 249 -70 453 -39 624 9 45 56 191 67 205 6 6 8 12 5 12 -3 0 12 36 34 80
21 44 39 83 39 87 0 3 6 14 14 22 7 9 31 48 51 86 21 39 42 72 47 73 4 2 6 8
2 13 -3 5 0 9 5 9 6 0 11 5 11 10 0 6 8 23 19 38 22 33 102 159 116 184 9 16
178 292 214 348 8 14 25 43 37 65 12 22 38 69 58 105 31 54 105 203 111 220 1
3 14 32 29 65 59 127 66 144 66 153 0 5 8 24 17 43 10 19 18 39 19 45 1 9 31
96 52 154 3 8 6 20 8 25 1 6 14 48 28 94 14 46 24 87 21 89 -3 3 0 11 5 18 6
6 13 25 15 40 3 16 16 81 29 144 27 128 33 164 42 230 3 25 7 56 9 70 3 14 7
52 11 85 3 33 8 71 10 85 25 150 25 735 -1 970 -2 19 -6 58 -9 85 -6 58 -15
125 -23 175 -3 19 -6 45 -8 57 -2 12 -6 36 -11 55 -4 18 -8 42 -9 53 -2 23 -9
59 -30 152 -9 37 -17 77 -19 88 -19 111 -156 550 -205 660 -5 11 -33 76 -62
145 -90 214 -222 460 -348 650 -20 30 -40 63 -46 72 -42 72 -261 351 -333 425
-13 12 -20 23 -17 23 8 0 -333 339 -405 402 -106 93 -173 148 -244 201 -28 22
-52 43 -54 48 -2 5 -8 9 -14 9 -6 0 -29 15 -52 33 -38 30 -75 57 -114 82 -17
10 -30 21 -57 43 -8 7 -15 10 -15 7 0 -3 -15 5 -32 18 -35 26 -176 115 -237
149 -117 67 -170 95 -296 157 -146 72 -213 103 -305 141 -30 12 -68 28 -85 35
-16 7 -64 25 -105 40 -41 15 -93 34 -115 42 -22 8 -48 17 -58 19 -10 1 -45 13
-77 24 -33 12 -69 22 -80 23 -11 1 -20 5 -20 10 0 5 -6 7 -12 4 -7 -2 -24 0
-38 5 -39 15 -149 43 -290 73 -28 6 -82 16 -114 21 -21 3 -48 8 -60 10 -83 19
-208 35 -283 38 -24 0 -43 3 -43 6 0 3 -24 7 -52 8 -49 2 -123 8 -140 11 -10
2 -6 44 5 59 6 7 6 12 0 12 -11 0 -10 81 1 98 3 6 2 13 -4 17 -6 4 -8 11 -5
16 4 5 8 47 10 93 7 147 20 284 40 449 11 85 15 113 19 132 2 11 7 40 10 65 9
63 21 135 42 235 3 17 7 39 9 50 2 11 4 20 5 20 1 0 3 11 6 24 10 53 46 188
59 224 8 20 12 37 8 37 -4 0 -2 5 5 12 7 7 12 17 12 24 0 6 7 29 16 50 9 22
16 39 15 39 -1 0 15 34 35 75 20 41 37 77 38 79 1 4 -62 9 -67 5z"/>
</g>
</svg>
